<svg width="56" height="60" viewBox="0 0 56 60" fill="none" xmlns="http://www.w3.org/2000/svg">
<g filter="url(#filter0_d_144_8)">
<path fill-rule="evenodd" clip-rule="evenodd" d="M21.9797 17.6089C22.4833 17.9454 23.0754 18.125 23.6811 18.125C24.4931 18.1241 25.2715 17.8012 25.8457 17.2271C26.4198 16.6529 26.7427 15.8745 26.7436 15.0625C26.7436 14.4568 26.564 13.8647 26.2275 13.3611C25.891 12.8574 25.4127 12.4649 24.8531 12.2331C24.2935 12.0013 23.6777 11.9407 23.0836 12.0588C22.4896 12.177 21.9439 12.4687 21.5156 12.897C21.0873 13.3253 20.7956 13.871 20.6774 14.465C20.5593 15.0591 20.6199 15.6749 20.8517 16.2345C21.0835 16.7941 21.476 17.2724 21.9797 17.6089ZM33.2816 18.1753L33.3062 18.1688C34.3453 17.8959 35.0556 18.953 35.0556 19.9171C35.0556 20.8813 34.1806 21.3352 33.3056 21.6633C33.2766 21.6743 33.247 21.6837 33.217 21.6917L28.3345 23.3985C27.7067 23.6342 27.4377 23.8792 27.3786 23.9886C27.3774 23.9915 27.3759 23.9942 27.3742 23.9968C27.3119 24.1078 27.1276 24.5814 27.3567 26.0148L27.6734 28.4757L29.4578 38.0313C29.4744 38.1047 29.4882 38.1788 29.4994 38.2533C29.6295 39.1392 28.981 40 27.7494 40C26.6775 40 26.2045 39.2601 25.9994 38.2533C25.9994 38.2533 24.4222 29.6362 23.6566 29.6362C22.9858 29.6362 21.8848 35.4776 21.4844 37.602C21.4277 37.9025 21.3851 38.1286 21.3597 38.2533C21.1546 39.2601 20.6816 40 19.6097 40C18.3814 40 17.7328 39.1431 17.8597 38.2599L17.8723 38.1904C17.8767 38.1631 17.8816 38.1363 17.887 38.11L19.6474 28.4746L19.9646 26.0137C20.0286 25.6134 20.2091 24.4666 19.9832 23.8874C19.9138 23.707 19.7716 23.4986 19.2395 23.2946L14.0321 21.6682V21.6529C13.1653 21.3264 12.3067 20.8714 12.3067 19.916C12.3067 18.9513 13.0177 17.8959 14.0567 18.1693C14.2051 18.208 14.3512 18.2551 14.4942 18.3104C15.9314 18.7189 20.424 19.922 23.6577 19.922C27.1374 19.922 32.0768 18.5297 33.0945 18.2311C33.1492 18.2142 33.2039 18.1978 33.2586 18.1824L33.2816 18.1753Z" fill="#7300E6"/>
</g>
<defs>
<filter id="filter0_d_144_8" x="0.306732" y="0" width="54.7489" height="60" filterUnits="userSpaceOnUse" color-interpolation-filters="sRGB">
<feFlood flood-opacity="0" result="BackgroundImageFix"/>
<feColorMatrix in="SourceAlpha" type="matrix" values="0 0 0 0 0 0 0 0 0 0 0 0 0 0 0 0 0 0 127 0" result="hardAlpha"/>
<feOffset dx="4" dy="4"/>
<feGaussianBlur stdDeviation="8"/>
<feComposite in2="hardAlpha" operator="out"/>
<feColorMatrix type="matrix" values="0 0 0 0 0.45098 0 0 0 0 0 0 0 0 0 0.901961 0 0 0 0.15 0"/>
<feBlend mode="normal" in2="BackgroundImageFix" result="effect1_dropShadow_144_8"/>
<feBlend mode="normal" in="SourceGraphic" in2="effect1_dropShadow_144_8" result="shape"/>
</filter>
</defs>
</svg>
