<svg width="1403" height="202" viewBox="0 0 1403 202" fill="none" xmlns="http://www.w3.org/2000/svg">
<path d="M1215.27 84H1369.17V117.3H1215.27V84ZM1362.57 3.90002H1402.47V198H1362.57V3.90002ZM1180.17 3.90002H1220.07V198H1180.17V3.90002Z" fill="#7300E6"/>
<path d="M1141.24 128.1C1139.44 143.7 1133.94 157 1124.74 168C1115.54 179 1103.04 187.4 1087.24 193.2C1071.44 199 1052.64 201.9 1030.84 201.9C1012.64 201.9 995.945 199.8 980.745 195.6C965.745 191.4 952.745 185.1 941.745 176.7C930.945 168.3 922.545 157.9 916.545 145.5C910.545 132.9 907.545 118.2 907.545 101.4C907.545 84.6 910.545 69.9 916.545 57.3C922.545 44.7 930.945 34.2 941.745 25.8C952.745 17.2 965.745 10.8 980.745 6.60001C995.945 2.2 1012.64 0 1030.84 0C1052.64 0 1071.44 3 1087.24 8.99999C1103.24 15 1115.84 23.6 1125.04 34.8C1134.24 45.8 1139.64 59.2 1141.24 75H1101.64C1099.04 66.6 1094.64 59.4 1088.44 53.4C1082.44 47.2 1074.64 42.5 1065.04 39.3C1055.44 36.1 1044.04 34.5 1030.84 34.5C1014.44 34.5 1000.04 37.1 987.645 42.3C975.245 47.3 965.645 54.8 958.845 64.8C952.045 74.6 948.645 86.8 948.645 101.4C948.645 115.8 952.045 127.9 958.845 137.7C965.645 147.5 975.245 155 987.645 160.2C1000.04 165.2 1014.44 167.7 1030.84 167.7C1044.04 167.7 1055.34 166.1 1064.74 162.9C1074.34 159.7 1082.14 155.1 1088.14 149.1C1094.34 143.1 1098.84 136.1 1101.64 128.1H1141.24Z" fill="#7300E6"/>
<path d="M696.082 3.90002H900.682V37.2H696.082V3.90002ZM778.582 33H818.482V198H778.582V33Z" fill="#7300E6"/>
<path d="M531.373 155.7V122.4H659.773V155.7H531.373ZM483.073 198L574.273 3.90002H617.473L709.573 198H666.073L586.273 23.1H605.473L526.273 198H483.073Z" fill="#7300E6"/>
<path d="M268.749 198V3.90002H380.649C406.649 3.90002 426.349 8.30002 439.749 17.1C453.349 25.7 460.149 38.6 460.149 55.8C460.149 66.8 457.449 75.5 452.049 81.9C446.649 88.1 438.949 92.7 428.949 95.7C419.149 98.7 407.549 100.6 394.149 101.4L395.349 99.3C405.149 99.5 414.349 100.2 422.949 101.4C431.749 102.6 439.449 104.8 446.049 108C452.649 111.2 457.849 115.7 461.649 121.5C465.449 127.1 467.349 134.5 467.349 143.7C467.349 155.7 464.149 165.7 457.749 173.7C451.349 181.5 442.449 187.4 431.049 191.4C419.649 195.4 406.449 197.6 391.449 198H268.749ZM308.649 165H387.249C399.849 165 409.549 163 416.349 159C423.149 154.8 426.549 148.2 426.549 139.2C426.549 132.6 424.549 127.8 420.549 124.8C416.549 121.8 411.249 120 404.649 119.4C398.049 118.6 390.949 118.2 383.349 118.2H308.649V165ZM308.649 86.1H379.149C391.749 86.1 401.449 84.3 408.249 80.7C415.049 76.9 418.449 70.5 418.449 61.5C418.449 52.5 415.049 46.2 408.249 42.6C401.449 38.8 392.449 36.9 381.249 36.9H308.649V86.1Z" fill="#7300E6"/>
<path fill-rule="evenodd" clip-rule="evenodd" d="M154.749 86.5C154.749 112.734 133.482 134 107.249 134C103.793 134 100.423 133.631 97.1761 132.93L60.8188 96.5726C60.1178 93.3262 59.7487 89.9562 59.7487 86.5C59.7487 60.2665 81.0152 39 107.249 39C133.482 39 154.749 60.2665 154.749 86.5ZM189.749 86.5C189.749 132.063 152.812 169 107.249 169C91.905 169 77.5397 164.811 65.2338 157.515L24.7487 198L-1.86563e-05 173.251L39.5658 133.685C30.2267 120.314 24.7487 104.047 24.7487 86.5C24.7487 40.9365 61.6852 4 107.249 4C152.812 4 189.749 40.9365 189.749 86.5ZM171.249 198C181.466 198 189.749 189.717 189.749 179.5C189.749 169.283 181.466 161 171.249 161C161.031 161 152.749 169.283 152.749 179.5C152.749 189.717 161.031 198 171.249 198Z" fill="#7300E6"/>
</svg>
