<svg width="47" height="48" viewBox="0 0 47 48" fill="none" xmlns="http://www.w3.org/2000/svg">
<path fill-rule="evenodd" clip-rule="evenodd" d="M38.3386 20.4124C38.3386 26.9979 33 32.3365 26.4145 32.3365C25.5293 32.3365 24.6666 32.2401 23.8364 32.0571L14.7698 22.9904C14.5868 22.1602 14.4903 21.2976 14.4903 20.4124C14.4903 13.8269 19.829 8.48826 26.4145 8.48826C33 8.48826 38.3386 13.8269 38.3386 20.4124ZM46.8269 20.4124C46.8269 31.6858 37.6879 40.8248 26.4145 40.8248C22.6181 40.8248 19.0638 39.7884 16.019 37.9831L6.00209 48L0 41.9979L9.76847 32.2294C7.39674 28.8945 6.00209 24.8163 6.00209 20.4124C6.00209 9.13895 15.141 1.52588e-05 26.4145 1.52588e-05C37.6879 1.52588e-05 46.8269 9.13895 46.8269 20.4124ZM42.2495 48C44.7775 48 46.8268 45.9507 46.8268 43.4227C46.8268 40.8947 44.7775 38.8454 42.2495 38.8454C39.7215 38.8454 37.6722 40.8947 37.6722 43.4227C37.6722 45.9507 39.7215 48 42.2495 48Z" fill="#7300E6"/>
</svg>
