<svg width="24" height="24" viewBox="0 0 24 24" fill="none" xmlns="http://www.w3.org/2000/svg">
<path d="M16.3333 6.50002C16.3333 8.04712 15.7188 9.53085 14.6248 10.6248C13.5308 11.7188 12.0471 12.3334 10.5 12.3334C8.9529 12.3334 7.46917 11.7188 6.37521 10.6248C5.28125 9.53085 4.66667 8.04712 4.66667 6.50002C4.66667 4.95292 5.28125 3.46919 6.37521 2.37523C7.46917 1.28127 8.9529 0.666687 10.5 0.666687C12.0471 0.666687 13.5308 1.28127 14.6248 2.37523C15.7188 3.46919 16.3333 4.95292 16.3333 6.50002ZM10.5 13.5C13.2953 13.5 15.8375 14.3097 17.7077 15.4507C18.641 16.02 19.439 16.692 20.0153 17.4224C20.5823 18.1399 21 18.9985 21 19.9167C21 20.9025 20.5205 21.6795 19.8298 22.2337C19.1765 22.7587 18.3143 23.1064 17.3985 23.349C15.5575 23.8355 13.1005 24 10.5 24C7.8995 24 5.4425 23.8367 3.6015 23.349C2.68567 23.1064 1.8235 22.7587 1.17017 22.2337C0.478333 21.6784 0 20.9025 0 19.9167C0 18.9985 0.417667 18.1399 0.984667 17.4212C1.561 16.692 2.35783 16.0212 3.29233 15.4495C5.1625 14.3109 7.70583 13.5 10.5 13.5ZM22.1667 13.5C22.464 13.5004 22.75 13.6142 22.9663 13.8183C23.1825 14.0225 23.3126 14.3015 23.33 14.5983C23.3475 14.8952 23.2509 15.1875 23.06 15.4155C22.8692 15.6435 22.5984 15.7901 22.3032 15.8252L22.1667 15.8334H21C20.7026 15.833 20.4166 15.7192 20.2004 15.515C19.9842 15.3109 19.8541 15.0319 19.8366 14.7351C19.8192 14.4382 19.9158 14.1459 20.1066 13.9179C20.2975 13.6899 20.5682 13.5433 20.8635 13.5082L21 13.5H22.1667ZM18.6667 11.1667C18.6667 10.8573 18.7896 10.5605 19.0084 10.3417C19.2272 10.1229 19.5239 10 19.8333 10H22.1667C22.4761 10 22.7728 10.1229 22.9916 10.3417C23.2104 10.5605 23.3333 10.8573 23.3333 11.1667C23.3333 11.4761 23.2104 11.7729 22.9916 11.9916C22.7728 12.2104 22.4761 12.3334 22.1667 12.3334H19.8333C19.5239 12.3334 19.2272 12.2104 19.0084 11.9916C18.7896 11.7729 18.6667 11.4761 18.6667 11.1667ZM18.6667 6.50002C18.3572 6.50002 18.0605 6.62294 17.8417 6.84173C17.6229 7.06052 17.5 7.35727 17.5 7.66669C17.5 7.97611 17.6229 8.27285 17.8417 8.49165C18.0605 8.71044 18.3572 8.83335 18.6667 8.83335H22.1667C22.4761 8.83335 22.7728 8.71044 22.9916 8.49165C23.2104 8.27285 23.3333 7.97611 23.3333 7.66669C23.3333 7.35727 23.2104 7.06052 22.9916 6.84173C22.7728 6.62294 22.4761 6.50002 22.1667 6.50002H18.6667Z" fill="#7300E6"/>
</svg>
