<svg width="56" height="56" viewBox="0 0 56 56" fill="none" xmlns="http://www.w3.org/2000/svg">
<g filter="url(#filter0_d_144_19)">
<path d="M28.3333 18.5C28.3333 20.0471 27.7188 21.5308 26.6248 22.6248C25.5308 23.7188 24.0471 24.3334 22.5 24.3334C20.9529 24.3334 19.4692 23.7188 18.3752 22.6248C17.2812 21.5308 16.6667 20.0471 16.6667 18.5C16.6667 16.9529 17.2812 15.4692 18.3752 14.3752C19.4692 13.2813 20.9529 12.6667 22.5 12.6667C24.0471 12.6667 25.5308 13.2813 26.6248 14.3752C27.7188 15.4692 28.3333 16.9529 28.3333 18.5ZM22.5 25.5C25.2953 25.5 27.8375 26.3097 29.7077 27.4507C30.641 28.02 31.439 28.692 32.0153 29.4224C32.5823 30.1399 33 30.9985 33 31.9167C33 32.9025 32.5205 33.6795 31.8298 34.2337C31.1765 34.7587 30.3143 35.1064 29.3985 35.349C27.5575 35.8355 25.1005 36 22.5 36C19.8995 36 17.4425 35.8367 15.6015 35.349C14.6857 35.1064 13.8235 34.7587 13.1702 34.2337C12.4783 33.6784 12 32.9025 12 31.9167C12 30.9985 12.4177 30.1399 12.9847 29.4212C13.561 28.692 14.3578 28.0212 15.2923 27.4495C17.1625 26.3109 19.7058 25.5 22.5 25.5ZM34.1667 25.5C34.464 25.5004 34.75 25.6142 34.9663 25.8183C35.1825 26.0225 35.3126 26.3015 35.33 26.5983C35.3475 26.8952 35.2509 27.1875 35.06 27.4155C34.8692 27.6435 34.5984 27.7901 34.3032 27.8252L34.1667 27.8334H33C32.7026 27.833 32.4166 27.7192 32.2004 27.515C31.9842 27.3109 31.8541 27.0319 31.8366 26.7351C31.8192 26.4382 31.9158 26.1459 32.1066 25.9179C32.2975 25.6899 32.5682 25.5433 32.8635 25.5082L33 25.5H34.1667ZM30.6667 23.1667C30.6667 22.8573 30.7896 22.5605 31.0084 22.3417C31.2272 22.1229 31.5239 22 31.8333 22H34.1667C34.4761 22 34.7728 22.1229 34.9916 22.3417C35.2104 22.5605 35.3333 22.8573 35.3333 23.1667C35.3333 23.4761 35.2104 23.7729 34.9916 23.9916C34.7728 24.2104 34.4761 24.3334 34.1667 24.3334H31.8333C31.5239 24.3334 31.2272 24.2104 31.0084 23.9916C30.7896 23.7729 30.6667 23.4761 30.6667 23.1667ZM30.6667 18.5C30.3572 18.5 30.0605 18.6229 29.8417 18.8417C29.6229 19.0605 29.5 19.3573 29.5 19.6667C29.5 19.9761 29.6229 20.2729 29.8417 20.4916C30.0605 20.7104 30.3572 20.8334 30.6667 20.8334H34.1667C34.4761 20.8334 34.7728 20.7104 34.9916 20.4916C35.2104 20.2729 35.3333 19.9761 35.3333 19.6667C35.3333 19.3573 35.2104 19.0605 34.9916 18.8417C34.7728 18.6229 34.4761 18.5 34.1667 18.5H30.6667Z" fill="#7300E6"/>
</g>
<defs>
<filter id="filter0_d_144_19" x="0" y="0.666687" width="55.3333" height="55.3333" filterUnits="userSpaceOnUse" color-interpolation-filters="sRGB">
<feFlood flood-opacity="0" result="BackgroundImageFix"/>
<feColorMatrix in="SourceAlpha" type="matrix" values="0 0 0 0 0 0 0 0 0 0 0 0 0 0 0 0 0 0 127 0" result="hardAlpha"/>
<feOffset dx="4" dy="4"/>
<feGaussianBlur stdDeviation="8"/>
<feComposite in2="hardAlpha" operator="out"/>
<feColorMatrix type="matrix" values="0 0 0 0 0.45098 0 0 0 0 0 0 0 0 0 0.901961 0 0 0 0.15 0"/>
<feBlend mode="normal" in2="BackgroundImageFix" result="effect1_dropShadow_144_19"/>
<feBlend mode="normal" in="SourceGraphic" in2="effect1_dropShadow_144_19" result="shape"/>
</filter>
</defs>
</svg>
