<svg width="24" height="22" viewBox="0 0 24 22" fill="none" xmlns="http://www.w3.org/2000/svg">
<path fill-rule="evenodd" clip-rule="evenodd" d="M5.37697 17.0805C5.17245 17.285 5.05756 17.5625 5.05756 17.8517C5.05756 18.141 5.17245 18.4184 5.37697 18.623C9.63706 22.8831 16.5448 22.8831 20.8049 18.623C25.065 14.3629 25.065 7.45516 20.8049 3.19507C16.5448 -1.06502 9.63706 -1.06502 5.37697 3.19507C3.59426 4.97226 2.48376 7.31319 2.23509 9.81812H1.0907C0.874968 9.81816 0.664092 9.88217 0.484732 10.002C0.305372 10.1219 0.165581 10.2923 0.0830297 10.4916C0.000478817 10.6909 -0.0211249 10.9102 0.0209497 11.1218C0.0630243 11.3334 0.166888 11.5278 0.319411 11.6803L2.50127 13.8622L2.50346 13.8644C2.60473 13.9657 2.72501 14.0459 2.85739 14.1006C2.98978 14.1553 3.13165 14.1833 3.27488 14.183C3.41811 14.1827 3.55986 14.1541 3.69201 14.0988C3.82416 14.0436 3.9441 13.9628 4.04494 13.8611L6.22681 11.6803C6.3794 11.5277 6.48328 11.3332 6.52532 11.1215C6.56736 10.9099 6.54567 10.6905 6.46298 10.4911C6.38029 10.2917 6.24033 10.1214 6.06081 10.0016C5.88128 9.8818 5.67025 9.81795 5.45443 9.81812H4.43113C4.67778 7.86137 5.57992 6.04586 6.9905 4.66748C8.40109 3.2891 10.237 2.42913 12.1989 2.22774C14.1608 2.02635 16.1331 2.4954 17.7943 3.55846C19.4555 4.62152 20.7076 6.21589 21.3467 8.08171C21.9857 9.94754 21.974 11.9748 21.3133 13.8331C20.6527 15.6914 19.3821 17.2711 17.7086 18.3148C16.0352 19.3585 14.0576 19.8046 12.0982 19.5805C10.1387 19.3563 8.31295 18.4751 6.91846 17.0805C6.71392 16.8763 6.43672 16.7616 6.14772 16.7616C5.85871 16.7616 5.58151 16.8763 5.37697 17.0805ZM10.9091 6.54532C10.9091 6.25599 11.024 5.9785 11.2286 5.77391C11.4332 5.56933 11.7107 5.45439 12 5.45439C12.2894 5.45439 12.5668 5.56933 12.7714 5.77391C12.976 5.9785 13.091 6.25599 13.091 6.54532V10.909H17.4547C17.744 10.909 18.0215 11.024 18.2261 11.2286C18.4307 11.4332 18.5456 11.7106 18.5456 12C18.5456 12.2893 18.4307 12.5668 18.2261 12.7714C18.0215 12.976 17.744 13.0909 17.4547 13.0909H12C11.7107 13.0909 11.4332 12.976 11.2286 12.7714C11.024 12.5668 10.9091 12.2893 10.9091 12V6.54532Z" fill="#7300E6"/>
</svg>
