<svg width="26" height="24" viewBox="0 0 26 24" fill="none" xmlns="http://www.w3.org/2000/svg">
<path fill-rule="evenodd" clip-rule="evenodd" d="M14.6248 10.6248C15.7188 9.53085 16.3333 8.04712 16.3333 6.50002C16.3333 4.95292 15.7188 3.46919 14.6248 2.37523C13.5308 1.28127 12.0471 0.666687 10.5 0.666687C8.9529 0.666687 7.46917 1.28127 6.37521 2.37523C5.28125 3.46919 4.66667 4.95292 4.66667 6.50002C4.66667 8.04712 5.28125 9.53085 6.37521 10.6248C7.46917 11.7188 8.9529 12.3334 10.5 12.3334C12.0471 12.3334 13.5308 11.7188 14.6248 10.6248ZM17.7077 15.4507C15.8375 14.3097 13.2953 13.5 10.5 13.5C7.70583 13.5 5.1625 14.3109 3.29233 15.4495C2.35783 16.0212 1.561 16.692 0.984667 17.4212C0.417667 18.1399 0 18.9985 0 19.9167C0 20.9025 0.478333 21.6784 1.17017 22.2337C1.8235 22.7587 2.68567 23.1064 3.6015 23.349C5.4425 23.8367 7.8995 24 10.5 24C13.1005 24 15.5575 23.8355 17.3985 23.349C18.3143 23.1064 19.1765 22.7587 19.8298 22.2337C20.5205 21.6795 21 20.9025 21 19.9167C21 18.9985 20.5823 18.1399 20.0153 17.4224C19.439 16.692 18.641 16.02 17.7077 15.4507ZM22.75 9C22.75 8.58579 22.4142 8.25 22 8.25C21.5858 8.25 21.25 8.58579 21.25 9V11.25H19C18.5858 11.25 18.25 11.5858 18.25 12C18.25 12.4142 18.5858 12.75 19 12.75H21.25V15C21.25 15.4142 21.5858 15.75 22 15.75C22.4142 15.75 22.75 15.4142 22.75 15V12.75H25C25.4142 12.75 25.75 12.4142 25.75 12C25.75 11.5858 25.4142 11.25 25 11.25H22.75V9Z" fill="#7300E6"/>
</svg>
