<svg width="27" height="27" viewBox="0 0 27 27" fill="none" xmlns="http://www.w3.org/2000/svg">
<path fill-rule="evenodd" clip-rule="evenodd" d="M2.81317 1.18683C2.36407 0.737724 1.63593 0.737724 1.18683 1.18683C0.737724 1.63593 0.737724 2.36407 1.18683 2.81317L6.68638 8.31273C6.79943 9.68428 7.39481 10.9777 8.37521 11.9581C9.35561 12.9385 10.6491 13.5339 12.0206 13.6469L13.2251 14.8515C12.9855 14.8395 12.7437 14.8333 12.5 14.8333C9.70583 14.8333 7.1625 15.6442 5.29233 16.7828C4.35783 17.3545 3.561 18.0253 2.98467 18.7545C2.41767 19.4732 2 20.3318 2 21.25C2 22.2358 2.47833 23.0117 3.17017 23.567C3.8235 24.092 4.68567 24.4397 5.6015 24.6823C7.4425 25.17 9.8995 25.3333 12.5 25.3333C15.1005 25.3333 17.5575 25.1688 19.3985 24.6823C20.3143 24.4397 21.1765 24.092 21.8298 23.567C21.8503 23.5506 21.8706 23.5339 21.8907 23.5171L24.1868 25.8132C24.6359 26.2623 25.3641 26.2623 25.8132 25.8132C26.2623 25.3641 26.2623 24.6359 25.8132 24.1868L2.81317 1.18683ZM8.3551 3.72875L16.6046 11.9782L16.6248 11.9581C17.7188 10.8642 18.3333 9.38043 18.3333 7.83333C18.3333 6.28624 17.7188 4.80251 16.6248 3.70854C15.5308 2.61458 14.0471 2 12.5 2C10.9529 2 9.46917 2.61458 8.37521 3.70854L8.3551 3.72875ZM24.1667 14.8333C24.464 14.8337 24.75 14.9475 24.9663 15.1517C25.1825 15.3558 25.3126 15.6348 25.33 15.9316C25.3475 16.2285 25.2509 16.5208 25.06 16.7488C24.8692 16.9768 24.5984 17.1234 24.3032 17.1585L24.1667 17.1667H23C22.7026 17.1663 22.4166 17.0525 22.2004 16.8483C21.9842 16.6442 21.8541 16.3652 21.8366 16.0684C21.8192 15.7715 21.9158 15.4792 22.1066 15.2512C22.2975 15.0232 22.5682 14.8766 22.8635 14.8415L23 14.8333H24.1667ZM20.6667 12.5C20.6667 12.1906 20.7896 11.8938 21.0084 11.675C21.2272 11.4563 21.5239 11.3333 21.8333 11.3333H24.1667C24.4761 11.3333 24.7728 11.4563 24.9916 11.675C25.2104 11.8938 25.3333 12.1906 25.3333 12.5C25.3333 12.8094 25.2104 13.1062 24.9916 13.325C24.7728 13.5438 24.4761 13.6667 24.1667 13.6667H21.8333C21.5239 13.6667 21.2272 13.5438 21.0084 13.325C20.7896 13.1062 20.6667 12.8094 20.6667 12.5ZM20.6667 7.83333C20.3572 7.83333 20.0605 7.95625 19.8417 8.17504C19.6229 8.39384 19.5 8.69058 19.5 9C19.5 9.30942 19.6229 9.60617 19.8417 9.82496C20.0605 10.0438 20.3572 10.1667 20.6667 10.1667H24.1667C24.4761 10.1667 24.7728 10.0438 24.9916 9.82496C25.2104 9.60617 25.3333 9.30942 25.3333 9C25.3333 8.69058 25.2104 8.39384 24.9916 8.17504C24.7728 7.95625 24.4761 7.83333 24.1667 7.83333H20.6667Z" fill="#7300E6"/>
</svg>
