<svg width="27" height="27" viewBox="0 0 27 27" fill="none" xmlns="http://www.w3.org/2000/svg">
<path fill-rule="evenodd" clip-rule="evenodd" d="M2.81318 1.18683C2.36408 0.73773 1.63594 0.73773 1.18683 1.18683C0.73773 1.63594 0.73773 2.36408 1.18683 2.81318L5.70944 7.33579C4.9012 8.69461 4.39343 10.2231 4.23509 11.8181H3.09071C2.87497 11.8182 2.6641 11.8822 2.48474 12.0021C2.30538 12.1219 2.16559 12.2923 2.08304 12.4916C2.00048 12.6909 1.97888 12.9102 2.02096 13.1218C2.06303 13.3334 2.16689 13.5278 2.31942 13.6803L4.50346 15.8644C4.60474 15.9657 4.72502 16.0459 4.8574 16.1006C4.98978 16.1553 5.13166 16.1833 5.27489 16.183C5.41811 16.1827 5.55987 16.1541 5.69202 16.0988C5.82417 16.0436 5.94411 15.9628 6.04495 15.8611L8.22681 13.6803C8.3794 13.5277 8.48329 13.3332 8.52533 13.1216C8.56737 12.9099 8.54567 12.6905 8.46299 12.4911C8.3803 12.2917 8.24034 12.1214 8.06081 12.0016C7.88129 11.8818 7.67026 11.818 7.45443 11.8181H6.43114C6.55841 10.8085 6.86019 9.83643 7.31629 8.94263L19.057 20.6834C17.5332 21.461 15.8088 21.7762 14.0982 21.5805C12.1387 21.3563 10.313 20.4751 8.91846 19.0805C8.71393 18.8763 8.43673 18.7616 8.14772 18.7616C7.85871 18.7616 7.58151 18.8763 7.37698 19.0805C7.17246 19.285 7.05757 19.5625 7.05757 19.8517C7.05757 20.141 7.17246 20.4185 7.37698 20.623C10.9799 24.226 16.4768 24.7818 20.664 22.2903L24.1868 25.8132C24.6359 26.2623 25.3641 26.2623 25.8132 25.8132C26.2623 25.3641 26.2623 24.6359 25.8132 24.1868L2.81318 1.18683ZM23.0069 18.3806C22.6317 18.0053 22.58 17.4209 22.8257 16.9505C23.0132 16.5915 23.1764 16.2183 23.3133 15.8331C23.974 13.9748 23.9857 11.9475 23.3467 10.0817C22.7077 8.21589 21.4555 6.62152 19.7943 5.55847C18.1331 4.49541 16.1608 4.02635 14.1989 4.22775C13.0907 4.3415 12.0228 4.66536 11.049 5.17408C10.5787 5.41973 9.99441 5.36806 9.61925 4.99291C9.13444 4.50809 9.19753 3.70027 9.79691 3.36735C13.9467 1.06235 19.2815 1.67159 22.8049 5.19507C26.3284 8.71848 26.9376 14.0531 24.6328 18.2029C24.2998 18.8024 23.4918 18.8655 23.0069 18.3806ZM19.6913 15.065L17.5354 12.9091H19.4547C19.744 12.9091 20.0215 13.024 20.2261 13.2286C20.4307 13.4332 20.5456 13.7107 20.5456 14C20.5456 14.2893 20.4307 14.5668 20.2261 14.7714C20.0782 14.9193 19.8923 15.0203 19.6913 15.065ZM12.9351 8.30871L15.091 10.4646V8.54533C15.091 8.25599 14.976 7.97851 14.7714 7.77392C14.5668 7.56933 14.2894 7.45439 14 7.45439C13.7107 7.45439 13.4332 7.56933 13.2286 7.77392C13.0808 7.92179 12.9797 8.10774 12.9351 8.30871Z" fill="#7300E6"/>
</svg>
