<svg width="53" height="56" viewBox="0 0 53 56" fill="none" xmlns="http://www.w3.org/2000/svg">
<g filter="url(#filter0_d_144_16)">
<path d="M32.3067 24C32.3075 24.3134 32.2271 24.6217 32.0735 24.8948C31.9198 25.168 31.6981 25.3967 31.4298 25.5588L14.806 35.7283C14.5257 35.8999 14.2047 35.9936 13.8762 35.9997C13.5476 36.0058 13.2233 35.924 12.9369 35.7629C12.6532 35.6043 12.4168 35.3729 12.2522 35.0927C12.0875 34.8124 12.0005 34.4934 12 34.1684V13.8316C12.0005 13.5066 12.0875 13.1876 12.2522 12.9073C12.4168 12.6271 12.6532 12.3957 12.9369 12.2371C13.2233 12.076 13.5476 11.9942 13.8762 12.0003C14.2047 12.0064 14.5257 12.1001 14.806 12.2717L31.4298 22.4412C31.6981 22.6033 31.9198 22.832 32.0735 23.1052C32.2271 23.3783 32.3075 23.6866 32.3067 24Z" fill="#7300E6"/>
</g>
<defs>
<filter id="filter0_d_144_16" x="0" y="0" width="52.3067" height="56" filterUnits="userSpaceOnUse" color-interpolation-filters="sRGB">
<feFlood flood-opacity="0" result="BackgroundImageFix"/>
<feColorMatrix in="SourceAlpha" type="matrix" values="0 0 0 0 0 0 0 0 0 0 0 0 0 0 0 0 0 0 127 0" result="hardAlpha"/>
<feOffset dx="4" dy="4"/>
<feGaussianBlur stdDeviation="8"/>
<feComposite in2="hardAlpha" operator="out"/>
<feColorMatrix type="matrix" values="0 0 0 0 0.45098 0 0 0 0 0 0 0 0 0 0.901961 0 0 0 0.15 0"/>
<feBlend mode="normal" in2="BackgroundImageFix" result="effect1_dropShadow_144_16"/>
<feBlend mode="normal" in="SourceGraphic" in2="effect1_dropShadow_144_16" result="shape"/>
</filter>
</defs>
</svg>
