<svg width="21" height="24" viewBox="0 0 21 24" fill="none" xmlns="http://www.w3.org/2000/svg">
<path d="M20.3067 12C20.3075 12.3134 20.2271 12.6217 20.0735 12.8948C19.9198 13.168 19.6981 13.3967 19.4298 13.5588L2.80602 23.7283C2.52575 23.8999 2.20474 23.9936 1.87615 23.9997C1.54757 24.0058 1.22331 23.924 0.936878 23.7629C0.653172 23.6043 0.416837 23.3729 0.252177 23.0927C0.0875167 22.8124 0.000474044 22.4934 0 22.1684V1.83164C0.000474044 1.5066 0.0875167 1.18755 0.252177 0.907307C0.416837 0.62706 0.653172 0.395729 0.936878 0.237103C1.22331 0.0759744 1.54757 -0.00576841 1.87615 0.000316538C2.20474 0.00640149 2.52575 0.100094 2.80602 0.271717L19.4298 10.4412C19.6981 10.6033 19.9198 10.832 20.0735 11.1052C20.2271 11.3783 20.3075 11.6866 20.3067 12Z" fill="#7300E6"/>
</svg>
