<svg width="24" height="14" viewBox="0 0 24 14" fill="none" xmlns="http://www.w3.org/2000/svg">
<path d="M21.6 6C21.3115 6.00206 21.0257 6.05613 20.7564 6.1596L17.8788 3.804C17.9496 3.5472 18 3.2808 18 3C18 1.3368 16.6632 0 15 0C13.3368 0 12 1.3368 12 3C12 3.4752 12.12 3.918 12.3144 4.3164L8.8236 8.442C8.68387 8.41585 8.54215 8.40179 8.4 8.4C8.1852 8.4 7.9824 8.436 7.7856 8.4888L4.71 5.4132C4.764 5.2176 4.8 5.0148 4.8 4.8C4.8 3.4704 3.7296 2.4 2.4 2.4C1.0704 2.4 0 3.4704 0 4.8C0 6.1296 1.0704 7.2 2.4 7.2C2.6148 7.2 2.8176 7.164 3.0144 7.1112L6.09 10.1868C6.03232 10.3862 6.00204 10.5925 6 10.8C6 12.1296 7.0704 13.2 8.4 13.2C9.7296 13.2 10.8 12.1296 10.8 10.8C10.8 10.5156 10.7424 10.248 10.6524 9.9948L14.148 5.8644C14.4204 5.9436 14.7024 6 15 6C15.4736 5.99738 15.9397 5.88178 16.3596 5.6628L19.2384 8.0184C19.2158 8.14442 19.203 8.272 19.2 8.4C19.2 9.7296 20.2704 10.8 21.6 10.8C22.9296 10.8 24 9.7296 24 8.4C24 7.0704 22.9296 6 21.6 6Z" fill="#7300E6"/>
</svg>
