<svg width="20" height="20" viewBox="0 0 20 20" fill="none" xmlns="http://www.w3.org/2000/svg">
<path d="M1 0C0.447715 0 0 0.447715 0 1V1C0 1.55228 0.447715 2 1 2H4C4.55228 2 5 2.44772 5 3V5C5 5.55228 4.55228 6 4 6H1C0.447715 6 0 6.44772 0 7V7C0 7.55228 0.447715 8 1 8H5C6.11 8 7 7.11 7 6V6C7 5.44772 7.44772 5 8 5H11C11.5523 5 12 5.44772 12 6V14C12 14.5523 11.5523 15 11 15H8C7.44772 15 7 14.5523 7 14V14C7 12.89 6.11 12 5 12H1C0.447715 12 0 12.4477 0 13V13C0 13.5523 0.447715 14 1 14H4C4.55228 14 5 14.4477 5 15V17C5 17.5523 4.55228 18 4 18H1C0.447715 18 0 18.4477 0 19V19C0 19.5523 0.447715 20 1 20H5C6.11 20 7 19.11 7 18V18C7 17.4477 7.44772 17 8 17H12C13.11 17 14 16.11 14 15V12C14 11.4477 14.4477 11 15 11H19C19.5523 11 20 10.5523 20 10V10C20 9.44772 19.5523 9 19 9H15C14.4477 9 14 8.55228 14 8V5C14 3.89 13.11 3 12 3H8C7.44772 3 7 2.55228 7 2V2C7 0.89 6.11 0 5 0H1Z" fill="#7300E6"/>
</svg>
