<svg width="24" height="28" viewBox="0 0 24 28" fill="none" xmlns="http://www.w3.org/2000/svg">
<path fill-rule="evenodd" clip-rule="evenodd" d="M9.97967 5.60888C10.4833 5.94539 11.0754 6.125 11.6811 6.125C12.4931 6.12413 13.2715 5.8012 13.8457 5.22706C14.4198 4.65291 14.7427 3.87446 14.7436 3.0625C14.7436 2.4568 14.564 1.86469 14.2275 1.36107C13.891 0.857442 13.4127 0.464914 12.8531 0.23312C12.2935 0.00132696 11.6777 -0.0593208 11.0836 0.0588465C10.4896 0.177014 9.94389 0.468688 9.51559 0.896987C9.08729 1.32529 8.79561 1.87097 8.67745 2.46504C8.55928 3.0591 8.61993 3.67487 8.85172 4.23447C9.08351 4.79407 9.47604 5.27237 9.97967 5.60888ZM21.2816 6.17533L21.3062 6.16877C22.3453 5.89588 23.0556 6.95299 23.0556 7.91713C23.0556 8.88127 22.1806 9.33517 21.3056 9.6633C21.2766 9.67426 21.247 9.68375 21.217 9.69174L16.3345 11.3985C15.7067 11.6342 15.4377 11.8792 15.3786 11.9886C15.3774 11.9915 15.3759 11.9942 15.3742 11.9968C15.3119 12.1078 15.1276 12.5814 15.3567 14.0148L15.6734 16.4757L17.4578 26.0313C17.4744 26.1047 17.4882 26.1788 17.4994 26.2533C17.6295 27.1392 16.981 28 15.7494 28C14.6775 28 14.2045 27.2601 13.9994 26.2533C13.9994 26.2533 12.4222 17.6362 11.6566 17.6362C10.9858 17.6362 9.88478 23.4776 9.48435 25.602C9.42773 25.9025 9.38511 26.1286 9.3597 26.2533C9.15462 27.2601 8.68158 28 7.6097 28C6.38142 28 5.73283 27.1431 5.8597 26.2599L5.87228 26.1904C5.87666 26.1631 5.88158 26.1363 5.88705 26.11L7.64744 16.4746L7.96462 14.0137C8.02861 13.6134 8.20908 12.4666 7.98322 11.8874C7.91376 11.707 7.77158 11.4986 7.23947 11.2946L2.03212 9.66822V9.65291C1.16533 9.32642 0.306732 8.87142 0.306732 7.91603C0.306732 6.95135 1.01767 5.89588 2.05673 6.16931C2.20513 6.20799 2.3512 6.2551 2.49423 6.31041C3.93142 6.71892 8.424 7.92205 11.6577 7.92205C15.1374 7.92205 20.0768 6.52971 21.0945 6.23111C21.1492 6.21416 21.2039 6.19775 21.2586 6.18244L21.2816 6.17533Z" fill="#7300E6"/>
</svg>
