<svg width="19" height="9" viewBox="0 0 19 9" fill="none" xmlns="http://www.w3.org/2000/svg">
<path fill-rule="evenodd" clip-rule="evenodd" d="M17.6387 7.99801H18.8887V7.24801H18.0137L18.0137 0.744598H18.8887V-0.00540161H17.6387H16.3887V0.744598H17.2637L17.2637 7.24801H16.3887V7.99801H17.6387ZM2.45013 6.176L1.68 8H0.216L3.612 0.224H5.076L8.496 8H7.02L6.24675 6.176H2.45013ZM2.9416 5.012H5.75329L4.34461 1.68909L2.9416 5.012ZM9.61987 7.736C10.0759 8 10.5759 8.132 11.1199 8.132C11.6159 8.132 12.0319 8.036 12.3679 7.844C12.7119 7.644 12.9839 7.388 13.1839 7.076C13.3919 6.764 13.5439 6.428 13.6399 6.068V6.584C13.6399 6.784 13.6479 6.996 13.6639 7.22C13.6799 7.436 13.6959 7.62 13.7119 7.772L13.7359 8H14.9839V2.024H13.6399V3.76771C13.6119 3.65562 13.5799 3.54639 13.5439 3.44C13.3839 2.968 13.1159 2.592 12.7399 2.312C12.3639 2.032 11.8559 1.892 11.2159 1.892C10.6399 1.892 10.1199 2.024 9.65588 2.288C9.19188 2.552 8.82388 2.92 8.55188 3.392C8.27987 3.856 8.14388 4.4 8.14388 5.024C8.14388 5.632 8.27588 6.172 8.53988 6.644C8.81188 7.108 9.17188 7.472 9.61987 7.736ZM13.6399 5.024C13.6399 5.408 13.5559 5.752 13.3879 6.056C13.2279 6.36 12.9879 6.6 12.6679 6.776C12.3559 6.944 11.9759 7.028 11.5279 7.028C11.1359 7.028 10.7879 6.944 10.4839 6.776C10.1799 6.608 9.93987 6.372 9.76388 6.068C9.59587 5.764 9.51188 5.416 9.51188 5.024C9.51188 4.424 9.68787 3.936 10.0399 3.56C10.3919 3.184 10.8879 2.996 11.5279 2.996C11.9759 2.996 12.3559 3.08 12.6679 3.248C12.9799 3.408 13.2199 3.64 13.3879 3.944C13.5559 4.24 13.6399 4.6 13.6399 5.024Z" fill="#7300E6"/>
</svg>
